<?xml version="1.0" encoding="utf-8"?>
<!-- Generator: Adobe Illustrator 27.5.0, SVG Export Plug-In . SVG Version: 6.00 Build 0)  -->
<svg version="1.1" xmlns="http://www.w3.org/2000/svg" xmlns:xlink="http://www.w3.org/1999/xlink" x="0px" y="0px"
	 viewBox="0 0 3250 2050" width="1065px" height="auto" xml:space="preserve">
<g id="cloud">
	<path style="fill:#CCEAF7;" d="M293.126,1617.411h2400.851c0,0-243.715-321.496-114.079-425.205
		c129.635-103.708,280.249-372.798,15.792-481.692s-799.575,252.734-1044.616-19.285
		c-350.348-388.919-911.614-173.206-989.975,51.427c-96.426,276.422,70.712,363.205,0,584.985
		C512.881,1478.869,293.126,1617.411,293.126,1617.411z"/>
	<path style="fill:#223E7D;" d="M3014.596,1614.094H266.581c-3.733,0-6.76-3.026-6.76-6.76l0,0c0-3.733,3.027-6.76,6.76-6.76
		h2748.014c3.733,0,6.76,3.026,6.76,6.76l0,0C3021.355,1611.068,3018.329,1614.094,3014.596,1614.094z"/>
</g>
<g id="laptops">
	<g>
		<path style="fill:#B6CEEB;" d="M2029.642,1568.465h874.356c11.764,0,22.059-9.537,22.994-21.301l43.136-542.604
			c0.935-11.764-7.844-21.301-19.608-21.301h-874.355c-11.764,0-22.059,9.537-22.994,21.301l-43.136,542.604
			C2009.099,1558.929,2017.877,1568.465,2029.642,1568.465z"/>
		<path d="M2904.312,1564.512c9.565,0,17.966-7.782,18.726-17.348l43.136-542.604c0.76-9.565-6.403-17.347-15.968-17.347H2075.85
			c-9.565,0-17.966,7.782-18.726,17.347l-43.136,542.604c-0.76,9.566,6.403,17.348,15.968,17.348H2904.312z"/>
		<g>
			<polygon style="fill:#ADDDF6;" points="2040.482,1542.087 2896.424,1542.087 2938.969,1006.919 2083.027,1006.919 			"/>
		</g>
		<g>
			<g>
				<path style="fill:#436FB5;" d="M1867.266,1568.515v14.236c0,0.723,0,1.44,0.144,2.16c1.007,9.204,8.918,16.396,18.411,16.396
					h1017.065c9.493,0,17.404-7.192,18.411-16.396c0.144-0.72,0.144-1.436,0.144-2.16v-14.236H1867.266z"/>
				<path style="fill:#435DA9;" d="M1867.411,1584.911c1.007,9.204,8.918,16.396,18.411,16.396h1017.065
					c9.493,0,17.404-7.192,18.411-16.396H1867.411z"/>
			</g>
			<g>
				<path style="fill:#6A91CB;" d="M1867.266,1568.515v14.236c0,0.723,0,1.44,0.144,2.16c1.007,9.204,8.918,16.396,18.411,16.396
					h647.55c9.493,0,17.26-7.192,18.411-16.396c0-0.72,0.144-1.436,0.144-2.16v-14.236H1867.266z"/>
				<path style="fill:#435DA9;" d="M1867.411,1584.911c1.007,9.204,8.918,16.396,18.411,16.396h647.55
					c9.493,0,17.26-7.192,18.411-16.396H1867.411z"/>
			</g>
		</g>
		<g>
			<g>
				<g>
					<path style="fill:#2654A4;" d="M2571.976,1289.389l-2.615-9.147c-1.188-4.154-5.576-6.875-9.803-6.077l-81.482,15.376
						c-4.228,0.798-6.692,4.812-5.504,8.966l46.232,161.695l210.77-39.774l-43.616-152.548L2571.976,1289.389z"/>
					<polygon style="fill:#FFFFFF;" points="2696.309,1271.784 2489.632,1310.785 2518.803,1460.202 2728.545,1420.623 					"/>
					<path style="fill:#5CA8DC;" d="M2729.573,1420.429l-210.77,39.774l-19.14-149.383c-0.56-4.37,2.257-8.209,6.628-9.034
						l192.891-36.4c5.409-1.021,10.901,2.929,11.594,8.336L2729.573,1420.429z"/>
				</g>
			</g>
			<g>
				<g>
					
						<rect x="2608.183" y="1322.066" transform="matrix(-0.0634 0.998 -0.998 -0.0634 4243.1611 -1212.6129)" style="fill:#CFD8E7;" width="164.762" height="125.215"/>
					
						<rect x="2615.982" y="1329.758" transform="matrix(-0.0634 0.998 -0.998 -0.0634 4243.1616 -1212.6127)" style="fill:#336CB4;" width="149.164" height="109.832"/>
					<polygon style="fill:#BBC4D2;" points="2647.436,1316.752 2641.062,1417.016 2697.283,1365.696 					"/>
					<polygon style="fill:#BBC4D2;" points="2644.538,1362.343 2639.182,1446.587 2685.674,1403.767 					"/>
					
						<ellipse transform="matrix(0.0847 -0.9964 0.9964 0.0847 1084.968 3976.626)" style="fill:#BBC4D2;" cx="2706.901" cy="1397.781" rx="11.635" ry="11.635"/>
				</g>
				<g>
					<g>
						
							<rect x="2670.355" y="1319.266" transform="matrix(-0.5365 0.8439 -0.8439 -0.5365 5395.7993 -199.6915)" style="fill:#E3EBF7;" width="164.762" height="125.215"/>
						
							<rect x="2678.154" y="1326.958" transform="matrix(-0.5365 0.8439 -0.8439 -0.5365 5395.7988 -199.692)" style="fill:#568DC9;" width="149.164" height="109.832"/>
						<polygon style="fill:#E3EBF7;" points="2747.678,1301.576 2693.775,1386.357 2767.769,1368.483 						"/>
						<polygon style="fill:#E3EBF7;" points="2723.168,1340.127 2677.877,1411.362 2739.25,1396.248 						"/>
						<path style="fill:#E3EBF7;" d="M2754.492,1411.05c-5.422-3.448-7.023-10.638-3.576-16.061
							c3.448-5.422,10.638-7.023,16.06-3.576c5.423,3.448,7.024,10.638,3.576,16.061
							C2767.105,1412.897,2759.915,1414.498,2754.492,1411.05z"/>
					</g>
				</g>
			</g>
			<rect x="2544.028" y="1413.212" style="fill:#E87C24;" width="297.215" height="129.419"/>
			<rect x="2467.437" y="1413.212" style="fill:#B16027;" width="76.591" height="129.419"/>
			<polygon style="fill:#C96C28;" points="2841.243,1413.212 2544.028,1413.212 2595.488,1362.713 2892.703,1362.713 			"/>
			<polygon style="fill:#E87C24;" points="2503.13,1485.757 2426.539,1485.757 2467.437,1413.212 2544.028,1413.212 			"/>
			<rect x="2761.417" y="1504.734" style="fill:#F89C38;" width="66.274" height="29.035"/>
		</g>
	</g>
	<g>
		<path style="fill:#B6CEEB;" d="M1210.495,1568.158H336.14c-11.764,0-22.059-9.537-22.994-21.301l-43.136-542.604
			c-0.935-11.764,7.843-21.301,19.608-21.301h874.356c11.764,0,22.059,9.537,22.994,21.301l43.136,542.604
			C1231.038,1558.621,1222.26,1568.158,1210.495,1568.158z"/>
		<path d="M335.825,1564.205c-9.565,0-17.966-7.782-18.726-17.348l-43.136-542.604c-0.76-9.565,6.403-17.347,15.968-17.347h874.356
			c9.565,0,17.966,7.782,18.726,17.347l43.136,542.604c0.76,9.566-6.403,17.348-15.968,17.348H335.825z"/>
		<g>
			<polygon style="fill:#ADDDF6;" points="1199.655,1541.78 343.713,1541.78 301.168,1006.612 1157.11,1006.612 			"/>
		</g>
		<g>
			<g>
				<path style="fill:#436FB5;" d="M1372.871,1568.208v14.236c0,0.723,0,1.44-0.144,2.16c-1.007,9.204-8.918,16.396-18.411,16.396
					H337.251c-9.493,0-17.404-7.192-18.411-16.396c-0.144-0.72-0.144-1.436-0.144-2.16v-14.236H1372.871z"/>
				<path style="fill:#435DA9;" d="M1372.727,1584.604c-1.007,9.204-8.918,16.396-18.411,16.396H337.251
					c-9.493,0-17.404-7.192-18.411-16.396H1372.727z"/>
			</g>
			<g>
				<path style="fill:#6A91CB;" d="M1372.871,1568.208v14.236c0,0.723,0,1.44-0.144,2.16c-1.007,9.204-8.918,16.396-18.411,16.396
					h-647.55c-9.493,0-17.26-7.192-18.411-16.396c0-0.72-0.144-1.436-0.144-2.16v-14.236H1372.871z"/>
				<path style="fill:#435DA9;" d="M1372.727,1584.604c-1.007,9.204-8.918,16.396-18.411,16.396h-647.55
					c-9.493,0-17.26-7.192-18.411-16.396H1372.727z"/>
			</g>
		</g>
	</g>
</g>
<g id="hacker">
	<g>
		<g>
			<g>
				<path style="fill:#FFD045;" d="M1997.572,470.075l-81.447,141.07c-4.221,7.31,1.055,16.448,9.496,16.448h162.893
					c8.441,0,13.717-9.138,9.496-16.448l-81.447-141.07C2012.344,462.765,2001.792,462.765,1997.572,470.075z"/>
			</g>
			<path d="M2088.514,620.631H1925.62c-1.474,0-2.736-0.737-3.463-2.021c-0.726-1.242-0.732-2.694,0.005-3.978l81.453-141.066
				c1.421-2.536,5.478-2.536,6.92,0.01l81.437,141.056c0.731,1.263,0.731,2.726,0.005,3.989
				C2091.256,619.894,2089.993,620.631,2088.514,620.631z M1926.751,615.979h160.637l-80.321-139.109L1926.751,615.979z
				 M2006.504,475.881c0,0.011,0,0.011,0,0.011V475.881z M2007.646,475.871L2007.646,475.871L2007.646,475.871z"/>
			<g>
				<path d="M2007.304,577.592L2007.304,577.592c-4.676,0-8.553-3.621-8.874-8.286l-2.731-39.794
					c-0.461-6.722,4.867-12.428,11.605-12.428l0,0c6.738,0,12.066,5.706,11.605,12.428l-2.731,39.794
					C2015.858,573.971,2011.98,577.592,2007.304,577.592z"/>
				<circle cx="2007.304" cy="593.411" r="8.777"/>
			</g>
		</g>
		<g>
			<g>
				<path style="fill:#1D498B;" d="M1696.153,1162.398c-0.066,0.057,165.383,177.317,269.49,166
					c82.986-9.02,116.806-302.433,112.464-319.016c-27.775-106.078-190.43-50.248-188.541,27.243l3.675,114.633l-130.033-67.536
					C1727.231,1060.472,1681.138,1122.721,1696.153,1162.398z"/>
			</g>
			<g>
				<path style="fill:#FFFFFF;" d="M2134.262,1288.346c0,0-3.903,93.664,120.983,107.323
					c124.885,13.659,199.036-74.151,200.988-142.447c1.951-68.297-101.469-120.983-197.085-81.956
					C2163.532,1210.293,2153.775,1223.952,2134.262,1288.346z"/>
				<path style="fill:#1D498B;" d="M2064.014,1261.026c73.528,70.714,157.25,99.727,193.182,103.421
					c128.859,13.249,199.163-85.981,146.798-195.818c0,0-101.807-198.399-167.283-230.772
					c-65.5-32.673-314.556,41.144-329.982,115.552C1898.525,1093.597,1975.72,1176.112,2064.014,1261.026z"/>
				<g>
					<path style="fill:#1D498B;" d="M2083.826,1299.762c41.664,16.025,244.42,8.539,312.303-71.198
						c54.112-63.561-81.672-267.889-171.595-307.855c-100.203-44.535-150.237,86.292-95.634,141.309l92.929,87.549l-140.89,40.244
						C2038.823,1197.628,2042.162,1283.737,2083.826,1299.762z"/>
					<path style="fill:#0D203D;" d="M2143.876,1306.986c-11.777,0-21.997-0.384-30.077-0.976
						c-28.79-2.106-42.966-11.55-49.788-19.102c-7.51-8.313-8.049-16.093-8.067-16.42c-0.038-0.648,0.456-1.204,1.104-1.242
						c0.64-0.044,1.202,0.454,1.242,1.101l0,0c0.005,0.073,0.551,7.411,7.591,15.124c6.55,7.174,20.209,16.155,48.091,18.195
						c56.123,4.106,216.11-1.786,281.531-77.376c0.425-0.49,1.166-0.545,1.658-0.119c0.49,0.425,0.544,1.167,0.119,1.658
						C2340.679,1293.227,2214.385,1306.986,2143.876,1306.986z"/>
					<path style="fill:#0D203D;" d="M2051.848,1224.505c-0.066,0-0.134-0.006-0.201-0.018c-0.64-0.11-1.068-0.718-0.958-1.357
						c0.054-0.313,5.738-31.38,34.389-37.747c26.142-5.81,123.217-35.703,135.885-39.614l-19.318-36.302
						c-0.306-0.572-0.088-1.284,0.485-1.589c0.572-0.306,1.284-0.089,1.589,0.485l20.654,38.811l-1.357,0.421
						c-1.092,0.338-109.492,33.875-137.428,40.083c-27.093,6.021-32.53,35.556-32.582,35.853
						C2052.905,1224.103,2052.409,1224.505,2051.848,1224.505z"/>
				</g>
			</g>
			<g>
				<path style="fill:#1D498B;" d="M1888.363,1018.323c29.762,72.361,222.368,98.456,222.368,98.456
					s106.122-176.223,100.597-218.896c-11.817-92.481-111.93-100.653-196.498-73.137
					C1930.262,852.263,1850.868,927.161,1888.363,1018.323z"/>
				<path style="fill:#0D213F;" d="M2031.733,849.79c52.087-16.331,120.805-8.024,109.523,32.478
					c-13.681,49.116-91.883,126.329-80.074,169.256c0,0-116.624-25.23-139.822-81.258
					C1898.162,914.238,1979.646,866.121,2031.733,849.79z"/>
				<path d="M2071.051,1101.667c-0.135,0-0.272-0.017-0.409-0.052l-8.096-2.032c-47.117-11.818-111.646-28.003-142.277-46.318
					c-45.429-27.164-42.667-63.324-41.183-82.75l0.162-2.16c0.067-0.922,0.886-1.612,1.791-1.548
					c0.923,0.067,1.615,0.869,1.549,1.791l-0.164,2.171c-1.528,20.017-4.088,53.52,39.563,79.622
					c30.205,18.062,97.104,34.841,141.373,45.943l8.098,2.034c0.897,0.226,1.44,1.135,1.215,2.031
					C2072.482,1101.16,2071.8,1101.667,2071.051,1101.667z"/>
				<path d="M2129.195,1087.037c-0.202,0-0.408-0.037-0.607-0.115c-0.861-0.335-1.288-1.306-0.952-2.167
					c6.803-17.467,19.747-36.506,33.451-56.663c20.247-29.781,43.195-63.535,49.133-97.79c6.758-38.991-9.547-73.23-49.847-104.676
					c-0.729-0.569-0.858-1.621-0.289-2.35c0.569-0.729,1.619-0.859,2.35-0.29c41.363,32.276,58.073,67.567,51.085,107.888
					c-6.062,34.967-29.226,69.039-49.663,99.101c-13.595,19.995-26.435,38.882-33.101,55.995
					C2130.497,1086.632,2129.865,1087.037,2129.195,1087.037z"/>
			</g>
			<g>
				<g>
					<path style="fill:#F7A58D;" d="M1860.833,864.684c-17.191,209.978,219.969,230.222,259.759,23.954
						C2153.522,676.968,1876.419,657.911,1860.833,864.684z"/>
				</g>
				<g>
					<path style="fill:#B55C42;" d="M1974.67,921.236c-0.025,0-0.052-0.001-0.078-0.002c-0.615-0.026-15.118-0.781-19.011-12.327
						c-3.838-11.38,16.096-27.571,18.381-29.379c0.773-0.612,1.896-0.48,2.506,0.292c0.611,0.773,0.481,1.895-0.291,2.506
						c-5.662,4.484-19.792,17.797-17.215,25.442c3.12,9.251,15.657,9.897,15.784,9.902c0.984,0.042,1.748,0.874,1.705,1.859
						C1976.41,920.487,1975.62,921.236,1974.67,921.236z"/>
					<path d="M2026.092,898.785c-1.248,6.54,0.922,12.45,4.846,13.198c3.924,0.749,8.117-3.946,9.365-10.487
						c1.248-6.541-0.922-12.45-4.846-13.198C2031.533,887.55,2027.34,892.245,2026.092,898.785z"/>
					<path d="M1904.757,871.979c-1.248,6.54,0.922,12.449,4.846,13.198c3.924,0.749,8.117-3.946,9.365-10.487
						c1.248-6.54-0.922-12.449-4.846-13.198C1910.198,860.744,1906.005,865.439,1904.757,871.979z"/>
					
						<ellipse transform="matrix(0.975 -0.2222 0.2222 0.975 -152.4244 492.8183)" style="fill:#F7A58D;" cx="2113.535" cy="923.679" rx="21.892" ry="21.892"/>
					
						<ellipse transform="matrix(0.8833 -0.4689 0.4689 0.8833 -191.7464 973.3802)" style="fill:#F7A58D;" cx="1859.028" cy="871.786" rx="21.892" ry="21.892"/>
					<path style="fill:#663326;" d="M2106.78,926.367c7.248-32.542,13.22-93.117-22.82-97.407
						c-45.889-5.462-142.317-22.214-172.354-28.768c-24.427-5.33-42.745,46.855-47.687,79.509c0,0-3.393-49.232,2.313-72.436
						c3.935-16.004,29.027-120.971,157.118-96.532c128.09,24.439,109.394,136.654,104.708,160.551
						C2123.372,895.182,2106.78,926.367,2106.78,926.367z"/>
					<path style="fill:#663326;" d="M1933.653,859.134c-5.894-8.756-20.453-11.176-31.268-4.07
						c-6.643,3.61-8.879,11.631-8.879,11.631C1899.42,857.885,1922.277,854.16,1933.653,859.134z"/>
					<path style="fill:#1D498B;" d="M2138.754,845.698c0,0,11.6-138.339-113.041-155.593
						c-102.446-19.546-147.701,67.116-156.808,98.885C2035.56,789.022,2138.754,845.698,2138.754,845.698z"/>
					<path style="fill:#7E3F2E;" d="M1878.504,973.479c29.733,53.447,70.42,65.633,70.42,65.633s75.024,1.806,111.864-36.323
						c17.347-13.087,55.088-57.759,51.174-104.483c0,0-27.395,89.625-78.552,59.957c-38.027-21.828-76.612-22.643-112.343-20.406
						c-54.218,5.785-55.436-70.203-48.656-95.028C1843.774,908.269,1873.493,965.564,1878.504,973.479z M1911.778,969.359
						c2.576-13.498,33.724-23.302,63.696-18.172c36.575,6.26,51.707,20.006,49.132,33.505
						c-2.554,13.385-24.287,32.716-66.104,25.536C1928.534,1005.082,1909.225,982.744,1911.778,969.359z"/>
					<g>
						<defs>
							<path id="XMLID_19_" d="M2121.204,896.993c0,0-23.859-43.249-122.216-62.838c-98.357-19.589-124.298,2.064-136.464,11.837
								c-11.789-7.381-13.003-44.895,4.599-71.576c29.73-45.065,270.558-12.035,276.649,56.075
								C2144.073,865.321,2134.418,884.039,2121.204,896.993z"/>
						</defs>
						<use xlink:href="#XMLID_19_"  style="overflow:visible;fill:#3665AF;"/>
						<clipPath id="XMLID_00000067935380156514435940000009280595329561132962_">
							<use xlink:href="#XMLID_19_"  style="overflow:visible;"/>
						</clipPath>
						<path style="clip-path:url(#XMLID_00000067935380156514435940000009280595329561132962_);" d="M2099.98,902.948
							c3.557-2.548,6.096-6.254,8.626-9.762c2.507-3.477,4.872-7.057,7.07-10.738c4.384-7.343,8.103-15.101,10.936-23.175
							c2.826-8.053,4.719-16.435,5.469-24.941c0.739-8.369,0.326-16.841-1.276-25.09c-1.597-8.22-4.46-16.231-8.609-23.513
							c-0.504-0.885-1.029-1.759-1.571-2.622c-0.485-0.772-1.506-1.077-2.312-0.606c-0.77,0.451-1.093,1.535-0.606,2.311
							c4.311,6.868,7.325,14.344,9.177,22.237c1.851,7.889,2.48,15.976,2.042,24.115c-0.439,8.167-2.026,16.204-4.517,24.05
							c-2.493,7.853-5.87,15.359-9.916,22.538c-2.052,3.641-4.271,7.187-6.631,10.635c-1.179,1.723-2.394,3.421-3.642,5.095
							c-1.197,1.606-2.397,3.206-3.796,4.649c-0.667,0.688-1.383,1.35-2.15,1.899c-0.74,0.531-1.097,1.472-0.606,2.311
							C2098.097,903.074,2099.235,903.482,2099.98,902.948L2099.98,902.948z"/>
						<path style="clip-path:url(#XMLID_00000067935380156514435940000009280595329561132962_);" d="M2075.937,889.746
							c7.746-3.986,12.792-11.573,16.63-19.133c4.049-7.976,7.144-16.442,9.222-25.141c2.079-8.706,3.178-17.664,3.28-26.614
							c0.103-8.952-0.797-17.93-2.671-26.685c-1.873-8.749-4.764-17.275-8.611-25.354c-0.477-1.002-0.97-1.997-1.477-2.984
							c-0.416-0.811-1.555-1.048-2.311-0.606c-0.824,0.482-1.024,1.497-0.606,2.311c3.953,7.706,6.941,15.838,9.004,24.289
							c2.061,8.444,3.134,16.896,3.283,25.595c0.149,8.687-0.631,17.256-2.381,25.7c-1.757,8.478-4.461,16.817-8.1,24.604
							c-1.779,3.806-3.743,7.554-6.126,11.021c-2.206,3.209-5.01,6.359-8.225,8.533c-0.84,0.569-1.715,1.082-2.617,1.547
							c-0.811,0.417-1.049,1.554-0.606,2.311C2074.107,889.963,2075.123,890.165,2075.937,889.746L2075.937,889.746z"/>
						<path style="clip-path:url(#XMLID_00000067935380156514435940000009280595329561132962_);" d="M2059.344,870.715
							c3.418-6.868,6.308-14.004,8.627-21.317c2.297-7.244,4.037-14.664,5.214-22.171c1.19-7.59,1.84-15.261,1.896-22.944
							c0.057-7.683-0.485-15.357-1.574-22.961c-1.078-7.521-2.731-14.961-4.965-22.224c-0.274-0.891-0.557-1.779-0.848-2.665
							c-0.284-0.867-1.168-1.43-2.078-1.18c-0.849,0.233-1.466,1.208-1.18,2.078c2.348,7.153,4.138,14.484,5.356,21.914
							c1.191,7.267,1.818,14.708,1.905,22.134c0.087,7.432-0.365,15.001-1.376,22.289c-1.03,7.421-2.607,14.766-4.727,21.953
							c-2.112,7.159-4.752,14.144-7.944,20.873c-0.4,0.842-0.808,1.68-1.224,2.515c-0.406,0.816-0.218,1.829,0.606,2.311
							C2057.781,871.758,2058.936,871.535,2059.344,870.715L2059.344,870.715z"/>
						<path style="clip-path:url(#XMLID_00000067935380156514435940000009280595329561132962_);" d="M2033.759,865.074
							c5.598-13.391,9.448-27.495,11.488-41.864c2.052-14.452,2.357-29.128,0.772-43.642c-0.889-8.141-2.335-16.216-4.37-24.148
							c-0.227-0.884-1.209-1.418-2.078-1.18c-0.895,0.246-1.407,1.191-1.18,2.078c3.556,13.859,5.301,28.102,5.266,42.411
							c-0.036,14.307-1.845,28.548-5.415,42.401c-2.024,7.855-4.612,15.561-7.741,23.045c-0.352,0.842,0.38,1.858,1.18,2.078
							C2032.655,866.521,2033.406,865.919,2033.759,865.074L2033.759,865.074z"/>
						<path style="clip-path:url(#XMLID_00000067935380156514435940000009280595329561132962_);" d="M2009.862,848.755
							c1.707-13.559,3.413-27.118,5.12-40.677c1.707-13.559,3.413-27.118,5.12-40.677c0.957-7.606,1.915-15.212,2.872-22.819
							c0.114-0.907-0.858-1.689-1.689-1.689c-1.008,0-1.575,0.78-1.689,1.689c-1.707,13.559-3.413,27.118-5.12,40.677
							c-1.707,13.559-3.413,27.118-5.12,40.677c-0.957,7.606-1.915,15.212-2.872,22.819c-0.114,0.907,0.858,1.689,1.689,1.689
							C2009.181,850.444,2009.748,849.664,2009.862,848.755L2009.862,848.755z"/>
						<path style="clip-path:url(#XMLID_00000067935380156514435940000009280595329561132962_);" d="M1978.681,842.844
							c-0.273-13.531,0.24-27.076,1.543-40.547c1.289-13.321,3.361-26.563,6.188-39.644c1.607-7.436,3.461-14.818,5.552-22.132
							c0.251-0.877-0.307-1.838-1.18-2.078c-0.89-0.245-1.826,0.299-2.078,1.18c-3.73,13.051-6.699,26.318-8.882,39.716
							c-2.194,13.466-3.62,27.06-4.238,40.69c-0.345,7.6-0.438,15.21-0.284,22.816c0.018,0.913,0.763,1.689,1.689,1.689
							C1977.893,844.533,1978.7,843.76,1978.681,842.844L1978.681,842.844z"/>
						<path style="clip-path:url(#XMLID_00000067935380156514435940000009280595329561132962_);" d="M1950.567,836.949
							c-1.659-14.528-1.99-29.202-0.986-43.79c0.994-14.439,3.308-28.776,6.908-42.795c0.453-1.763,0.91-3.528,1.436-5.271
							c0.435-1.443,0.986-3.047,1.524-4.242c0.327-0.726,0.685-1.438,1.085-2.127c0.182-0.313,0.372-0.622,0.572-0.924
							c0.099-0.15,0.201-0.299,0.305-0.446c0.039-0.056,0.39-0.522,0.273-0.374c0.477-0.604,1.007-1.171,1.581-1.683
							c0.089-0.079,0.178-0.157,0.269-0.233c0.091-0.077,0.183-0.152,0.276-0.226c-0.106,0.082-0.078,0.062,0.086-0.06
							c0.347-0.243,0.698-0.473,1.065-0.686c1.88-1.09,0.181-4.011-1.705-2.917c-5.344,3.099-7.577,9.241-9.123,14.888
							c-1.946,7.109-3.547,14.315-4.819,21.575c-2.564,14.628-3.809,29.489-3.668,44.341c0.079,8.344,0.597,16.681,1.544,24.971
							c0.104,0.906,0.702,1.689,1.689,1.689C1949.711,838.638,1950.672,837.861,1950.567,836.949L1950.567,836.949z"/>
						<path style="clip-path:url(#XMLID_00000067935380156514435940000009280595329561132962_);" d="M1919.127,838.269
							c-2.137-13.644-2.886-27.508-2.293-41.304c0.295-6.863,0.915-13.717,1.895-20.517c0.864-5.994,1.95-11.982,3.755-17.773
							c1.904-6.109,4.7-12.056,8.878-16.927c0.594-0.692,0.68-1.709,0-2.389c-0.608-0.608-1.792-0.696-2.389,0
							c-8.009,9.338-11.204,21.524-13.084,33.421c-2.215,14.024-3.046,28.258-2.428,42.444c0.349,8.019,1.167,16.013,2.409,23.943
							c0.141,0.902,1.27,1.402,2.078,1.18C1918.91,840.083,1919.269,839.174,1919.127,838.269L1919.127,838.269z"/>
						<path style="clip-path:url(#XMLID_00000067935380156514435940000009280595329561132962_);" d="M1890.932,841.136
							c-0.373-14.153-0.745-28.362,0.714-42.47c1.279-12.366,4.103-24.79,9.404-36.027c2.898-6.143,6.528-11.967,10.95-17.087
							c0.596-0.69,0.678-1.711,0-2.389c-0.609-0.61-1.79-0.694-2.389,0c-8.251,9.554-13.799,21.107-17.223,33.202
							c-3.729,13.172-4.92,26.925-5.133,40.568c-0.126,8.069,0.085,16.138,0.297,24.203c0.024,0.912,0.759,1.689,1.689,1.689
							C1890.139,842.826,1890.956,842.053,1890.932,841.136L1890.932,841.136z"/>
						<path style="clip-path:url(#XMLID_00000067935380156514435940000009280595329561132962_);" d="M1871.24,846.497
							c-1.74-7.785-2.9-15.635-3.479-23.582c-0.586-8.047-0.589-16.135-0.018-24.183c0.564-7.951,1.693-15.807,3.39-23.601
							c1.715-7.882,3.997-15.642,6.835-23.194c1.378-3.667,2.887-7.285,4.54-10.836c1.627-3.496,3.422-7,5.816-10.042
							c0.603-0.766,1.248-1.498,1.922-2.202c1.505-1.57-0.88-3.962-2.389-2.389c-2.811,2.931-4.997,6.384-6.838,9.988
							c-1.887,3.694-3.525,7.525-5.065,11.375c-3.023,7.559-5.481,15.343-7.364,23.263c-1.909,8.031-3.227,16.207-3.967,24.429
							c-0.73,8.109-0.877,16.271-0.431,24.402c0.45,8.203,1.496,16.382,3.14,24.432c0.207,1.016,0.425,2.029,0.651,3.04
							c0.199,0.891,1.229,1.413,2.078,1.18C1870.977,848.323,1871.44,847.39,1871.24,846.497L1871.24,846.497z"/>
					</g>
					<path style="fill:#7E3F2E;" d="M1934.294,975.927c4.468-3.623,28.805-15.9,51.644-7.032
						c23.002,8.931,18.042,26.002,0.032,21.714c-18.01-4.288-26.611-5.597-46.972-2.7
						C1927.564,989.535,1929.826,979.55,1934.294,975.927z"/>
				</g>
				<path style="fill:#E6F5FC;" d="M2135.04,929.086c-0.093,0-0.187-0.01-0.281-0.031c-0.702-0.154-1.147-0.849-0.994-1.551l0,0
					c0.104-0.476,2.409-11.737-6.96-19.823c-5.439-4.127-9.128-4.202-9.164-4.202c-0.482-0.004-0.931-0.273-1.153-0.702
					c-0.223-0.428-0.197-0.944,0.076-1.342l3.565-5.182c0.083-0.12,0.187-0.227,0.304-0.313c0.121-0.089,12.172-9.137,18.216-30.329
					c6.05-21.217,5.543-43.402-1.13-49.456c-0.258-0.234-0.411-0.561-0.427-0.909c-0.295-6.706-10.075-50.391-18.974-63.978
					c-0.395-0.603-0.227-1.411,0.376-1.805c0.604-0.395,1.411-0.226,1.806,0.377c8.89,13.573,18.636,56.414,19.361,64.759
					c7.097,7.202,7.784,29.675,1.495,51.727c-5.967,20.92-17.344,30.303-18.999,31.579l-2.281,3.315
					c1.907,0.488,4.908,1.654,8.569,4.433c10.635,9.175,7.985,21.871,7.867,22.407
					C2136.179,928.671,2135.639,929.086,2135.04,929.086z"/>
				<path style="fill:#663326;" d="M2058.813,908.992c4.789-10.164,0.783-24.881-11.613-30.891
					c-8.937-3.962-17.199-1.685-17.199-1.685C2041.281,877.015,2057.155,895.879,2058.813,908.992z"/>
			</g>
			<g>
				<path style="fill:#F78C6D;" d="M1711.594,1057.921l16.158-50.286c0,0-0.655-13.98-5.626-21.732
					c-8.069-6.226-16.707-28.164-6.877-33.613c18.226,12.81,26.896,27.745,35.429,53.219c2.45,22.424-2.67,68.072-2.67,68.072
					C1739.774,1098.409,1700.834,1091.067,1711.594,1057.921z"/>
				<path style="fill:#F78C6D;" d="M1697.127,1081.068l16.88-45.527c0,0-3.677-13.503-10.214-19.99
					c-9.229-4.324-22.427-23.86-14.017-31.316c20.574,8.543,32.282,21.237,46.147,44.248c7.265,21.355-2.382,68.244-2.382,68.244
					C1725.307,1121.557,1686.367,1114.214,1697.127,1081.068z"/>
				<path style="fill:#F78C6D;" d="M1700.23,1042.315c7.528,2.801,15.308,12.205,15.308,12.205l0.233,3.317l20.185-9.143
					c-1.751-2.97-3.605-5.595-5.548-7.667c-19.295-13.291-33.164-19.163-52.584-18.546
					C1673.827,1031.431,1691.343,1042.202,1700.23,1042.315z"/>
				<path style="fill:#F78C6D;" d="M1716.958,1047.889l25.013-41.387c0,0,4.26-19.407,3.078-28.54
					c-4.635-9.076-3.072-32.602,8.144-33.329c11.006,19.369,12.463,36.576,9.295,63.254c-3.538,23.639-17.081,63.503-17.081,63.503
					C1730.796,1093.088,1697.677,1076.919,1716.958,1047.889z"/>
				<path style="fill:#F7A58D;" d="M1708.712,1142.156c0-1.943-37.506-25.894-11.011-66.711
					c21.804-33.59,46.868-50.299,46.868-50.299l20.798,10.409c-9.404,27.625-12.539,34.874-11.317,56.082
					C1750.811,1123.374,1725.596,1145.647,1708.712,1142.156z"/>
				<path style="fill:#F7A58D;" d="M1744.569,1024.558l-17.517,14.553c-31.531,26.68-35.304,63.063-35.304,63.063l57.134-29.645
					c0,0,9.163-20.482,14.283-31.262s16.44-47.971,16.979-49.318C1756.427,980.36,1744.569,1024.558,1744.569,1024.558z"/>
			</g>
			<g>
				<path style="fill:#F7A58D;" d="M2065.688,1254.148c0,0-22.768,4.052-49.977-11.291l-14.925-8.595
					c0,0-36.846-2.099-32.334-21.544c1.085,0.168,30.303,3.169,39.293,3.966c8.99,0.797,36.928,5.06,36.928,5.06
					s21.717,0.554,28.737,12.913C2082.305,1250.318,2065.688,1254.148,2065.688,1254.148z"/>
				<path style="fill:#F7A58D;" d="M2046.792,1265.839l-52.815-0.602c0,0-13.164,4.751-19.105,11.788
					c-3.568,9.547-21.981,24.272-30.088,16.488c6.862-21.194,18.575-33.884,40.397-49.554c20.702-8.957,65.829-17.533,65.829-17.533
					C2077.164,1226.967,2081.638,1266.34,2046.792,1265.839z"/>
				<path style="fill:#F7A58D;" d="M2055.567,1279.695l-36.116-11.491c0,0-11.817,7.498-16.087,15.657
					c-1.408,10.094-16.181,28.469-25.786,22.633c2.093-22.179,10.768-37.111,28.663-57.148
					c18.261-13.242,52.571-20.363,52.571-20.363C2089.103,1225.558,2100.601,1281.611,2055.567,1279.695z"/>
				<path style="fill:#F7A58D;" d="M2035.234,1281.301c0.455-8.019,7.145-18.228,7.145-18.228l3.1-1.202l-14.692-16.589
					c-2.321,2.55-4.282,5.095-5.689,7.563c-7.006,22.358-8.525,37.342-2.206,55.715
					C2032.624,1309.741,2037.748,1289.827,2035.234,1281.301z"/>
				<path style="fill:#F7A58D;" d="M2035.937,1265.232l-46.925-11.689c0,0-19.8,1.655-28.177,5.479
					c-7.305,7.107-30.244,12.554-34.248,2.052c15.26-16.231,31.271-22.7,57.696-27.544c23.63-3.594,65.715-2.415,65.715-2.415
					C2075.041,1238.675,2069.362,1275.09,2035.937,1265.232z"/>
			</g>
		</g>
	</g>
</g>
<g id="police">
	<g>
		<path style="fill:#FFFFFF;" d="M847.946,1378.436c0,0-30.278,101.439-168.64,70.097
			c-138.362-31.342-185.24-152.364-162.208-226.002c23.032-73.637,152.828-91.857,240.564-15.026S850.792,1302.507,847.946,1378.436
			z"/>
		<g>
			<path style="fill:#F7A594;" d="M1138.806,1091.125c0,0,143.943,82.044,208.01,73.733
				c66.208-8.589,148.383-278.971,148.383-278.971l-51.734-27.142l-111.17,165.448l-103.552-81.556L1138.806,1091.125z"/>
			<path style="fill:#13305C;" d="M965.665,952.078c0,0,66.178,110.132,199.127,161.126c108.605-73.927,79.631-158.56,79.631-158.56
				s-115.871-98.567-185.081-110.623S950.108,920.924,965.665,952.078z"/>
			<path style="fill:#1D498C;" d="M1125.844,1095.444c21.312-7.648,108.968-151.532,92.028-161.208
				c18.83,1.849,35.339,8.792,46.092,28.347c23.71,12.931-62.929,171.924-86.639,158.992
				C1158.281,1125.81,1141.118,1117.095,1125.844,1095.444z"/>
		</g>
		<path style="fill:#13305C;" d="M818.541,1383.167c-109.497,82.52-298.464-52.361-271.552-159.405
			c93.021-204.645,157.024-397.679,218.759-422.373c147.513-59.005,290.955,7.059,347.474,81.132
			c22.446,29.417,12.921,171.417-32.114,257.223C1059.117,1179.023,818.541,1383.167,818.541,1383.167z"/>
		<path style="fill:#F7A594;" d="M990.219,903.844c-7.839-21.619-57.448-78.064-65.519-101.399l69.027-103.933l63.754,31.162
			c16.559,12.185,31.428,27.1,42.783,42.256l-29.495,78.257l-6.344,17.001C1062.051,886.304,1037.479,895.994,990.219,903.844z"/>
		<path style="fill:#E6836F;" d="M999.172,735.013c0.497,20.328,17.116,81.827,71.597,115.175l25.518-67.706L999.172,735.013z"/>
		<g>
			<g>
				<path style="fill:#F7A594;" d="M1212.975,651.798c-5.156,24.65-17.155,78.452-29.161,100.278
					c-18.277,33.226-67.819,56.729-98.128,48.954c-33.95-11.493-73.275-41.098-87.714-72.332
					c-6.151-21.514-14.971-69.919-12.074-107.448c6.043-78.278,80.273-115.48,146.601-101.638
					C1198.829,533.453,1229.051,574.951,1212.975,651.798z"/>
				<path style="fill:#4D261C;" d="M985.828,674.751c-2.472-27.79,18.27-29.131,28.719-3.665
					c4.475-18.077,7.744-75.535,31.942-84.045c27.559-10.109,107.421,36.187,173.684,9.849c0,0,0.004-88.653-129.625-95.425
					C936.461,510.66,985.828,674.751,985.828,674.751z"/>
				
					<ellipse transform="matrix(0.965 -0.2623 0.2623 0.965 -140.2552 282.6007)" style="fill:#F7A594;" cx="988.575" cy="666.736" rx="23.133" ry="29.763"/>
			</g>
			<path style="fill:#13305C;" d="M1219.817,600.401c-12.011-10.641-208.416-20.408-209.679-6.067
				c0,0,120.135,55.467,220.091,55.535C1284.789,649.906,1219.817,600.401,1219.817,600.401z"/>
			<path style="fill:#1D498C;" d="M980.225,593.522l240.795,7.002l6.145-31.758l-254.224-9.318
				C972.694,571.212,975.143,585.214,980.225,593.522z"/>
			<path style="fill:#13305C;" d="M964.204,563.157c-25.935-1.658-31.616-20.551,2.411-36.05
				c52.488-23.908,122.209-114.5,181.711-109.55c41.007,3.411,48.848,56.828,83.93,103.788c15.912,21.299,22.242,38.872,7.78,49.522
				C1207.62,577.944,991.36,564.894,964.204,563.157z"/>
			<g>
				<path style="fill:#F7BD0C;" d="M1173.711,475.253c0.052-0.764,0.079-1.148,0.091-1.329c-5.332-1.583-10.429-3.947-14.923-6.823
					c-4.495-2.874-8.387-6.259-11.313-9.876l0,0h0c-0.016,0.014-0.034,0.029-0.05,0.045c-1.697,1.584-3.618,3.077-5.716,4.452
					c-2.793,1.829-5.92,3.422-9.232,4.765c-1.665,0.676-3.361,1.307-5.115,1.834c-2.622,0.79-5.327,1.404-8.069,1.819
					c-0.031,0.45-0.15,2.179-0.544,7.906c-0.079,1.146-0.168,2.451-0.271,3.939c-0.051,0.743-0.106,1.532-0.163,2.369
					c-0.173,2.511-0.375,5.456-0.613,8.908c-0.317,4.603,0.23,8.827,1.351,12.665c0.373,1.279,0.811,2.514,1.301,3.707
					c1.471,3.577,3.419,6.766,5.553,9.557s4.455,5.186,6.671,7.179c2.955,2.657,5.726,4.595,7.624,5.802
					c0.949,0.605,1.68,1.024,2.106,1.258c1.181-0.49,4.37-1.83,8.248-4.188c1.552-0.944,3.214-2.05,4.901-3.331
					c0.844-0.641,1.694-1.325,2.54-2.053c6.77-5.83,13.279-14.534,14.123-26.81C1173.162,483.241,1173.553,477.543,1173.711,475.253
					z"/>
				
					<ellipse transform="matrix(0.1531 -0.9882 0.9882 0.1531 480.1201 1550.9016)" style="fill:#FFFFFF;" cx="1144.938" cy="495.323" rx="17.658" ry="17.74"/>
			</g>
			<path style="fill:#BF5847;" d="M1128.46,724.757c-8.447,0-14.067-3.521-14.362-3.708c-0.597-0.382-0.771-1.177-0.389-1.774
				c0.382-0.599,1.177-0.772,1.774-0.389c0.08,0.051,8.368,5.198,19.596,2.516c0.679-0.162,1.233-0.63,1.695-1.432
				c4.993-8.668-4.61-46.254-8.732-60.005c-0.204-0.679,0.182-1.395,0.861-1.599c0.679-0.201,1.395,0.182,1.599,0.861
				c0.618,2.062,15.062,50.628,8.498,62.024c-0.822,1.427-1.94,2.318-3.324,2.649
				C1133.106,724.513,1130.685,724.757,1128.46,724.757z"/>
			<path style="fill:#BF5847;" d="M1120.335,768.531c-0.223,0-0.448-0.058-0.653-0.179c-0.61-0.361-0.812-1.149-0.451-1.759
				c1.123-1.896,1.246-3.728,0.379-5.598c-6.592-14.207-62.594-23.828-63.159-23.923c-0.699-0.118-1.17-0.781-1.052-1.48
				c0.118-0.699,0.782-1.169,1.48-1.052c2.361,0.4,57.904,9.951,65.06,25.374c1.233,2.658,1.065,5.345-0.499,7.986
				C1121.201,768.306,1120.773,768.531,1120.335,768.531z"/>
			<g>
				<path style="fill:#4F241D;" d="M1085.519,654.994c-0.546,4.189-3.536,7.253-6.677,6.843c-3.142-0.409-5.246-4.137-4.7-8.326
					c0.546-4.189,3.536-7.253,6.677-6.843C1083.961,647.078,1086.065,650.805,1085.519,654.994z"/>
				<path style="fill:#4F241D;" d="M1062.006,632.982c0,0,22.97,10.387,38.726,24.674c4.817-3.292-16.142-28.03-27.986-32.572
					L1062.006,632.982z"/>
			</g>
			<g>
				<path style="fill:#4F241D;" d="M1179.491,671.651c-0.546,4.189-3.536,7.253-6.677,6.843c-3.142-0.41-5.246-4.137-4.7-8.326
					s3.536-7.253,6.677-6.843C1177.933,663.735,1180.037,667.463,1179.491,671.651z"/>
				<path style="fill:#4F241D;" d="M1197.623,661.741c0,0-25.164-1.517-45.763,3.779c-2.727-5.157,27.346-17.275,39.942-15.773
					L1197.623,661.741z"/>
			</g>
		</g>
		<g>
			<path style="fill:#231F20;" d="M1006.912,873.632l-2.879,26.957l15.15-21.198l-8.495,43.836
				c0.292-7.956-7.878-20.137-7.878-20.137s-15.874-1.935-30.194,7.884L1006.912,873.632z"/>
			<path style="fill:#1D498C;" d="M941.147,777.342c3.061,28.287,43.293,71.127,65.765,96.29l-34.296,37.343
				c-26.208-31.529-61.171-70.53-55.987-121.914C918.927,775.623,927.782,772.826,941.147,777.342z"/>
			<path style="fill:#1D498C;" d="M1071.997,848.655c-5.76,6.068-23.718,32.702-52.815,30.736l-8.496,43.836
				c40.978,1.311,52.456-13.774,63.301-41.841C1078.246,870.194,1081.507,857.391,1071.997,848.655z"/>
		</g>
		<path style="fill:#231F20;" d="M672.41,1392.875c-0.467,0-0.929-0.202-1.246-0.594c-0.557-0.687-0.451-1.695,0.236-2.253
			c154.128-124.843,310.185-372.243,329.83-487.208c0.149-0.872,0.979-1.454,1.849-1.309c0.872,0.149,1.458,0.977,1.309,1.849
			c-9.517,55.692-51.778,144.723-113.049,238.158c-67.184,102.449-144.577,191.59-217.922,251
			C673.121,1392.759,672.764,1392.875,672.41,1392.875z"/>
		<g>
			<g>
				<path style="fill:#F7BD0C;" d="M1062.207,1049.29c0.314-0.675,0.473-1.015,0.547-1.175c-4.291-3.297-8.096-7.221-11.174-11.399
					c-3.08-4.177-5.434-8.608-6.829-12.913l0,0l0,0c-0.02,0.008-0.041,0.015-0.061,0.023c-2.094,0.846-4.361,1.532-6.747,2.049
					c-3.176,0.687-6.573,1.044-10.05,1.109c-1.748,0.033-3.51,0.015-5.287-0.117c-2.657-0.197-5.329-0.582-7.965-1.162
					c-0.185,0.398-0.897,1.927-3.254,6.99c-0.472,1.013-1.009,2.167-1.621,3.482c-0.306,0.657-0.631,1.354-0.975,2.094
					c-1.034,2.22-2.246,4.824-3.667,7.875c-1.895,4.07-2.873,8.097-3.194,11.972c-0.107,1.291-0.141,2.566-0.112,3.82
					c0.088,3.761,0.743,7.336,1.707,10.615c0.964,3.279,2.236,6.263,3.554,8.846c1.757,3.443,3.598,6.17,4.9,7.927
					c0.651,0.88,1.169,1.515,1.474,1.877c1.244-0.034,4.609-0.139,8.955-0.927c1.739-0.316,3.635-0.741,5.615-1.316
					c0.991-0.288,2.002-0.613,3.024-0.979c8.185-2.934,17.137-8.569,22.19-19.422
					C1058.919,1056.352,1061.264,1051.315,1062.207,1049.29z"/>
			</g>
			
				<rect x="965.554" y="1104.117" transform="matrix(0.8984 0.4391 -0.4391 0.8984 589.7661 -327.6215)" style="fill:#1D498C;" width="74.993" height="13.751"/>
		</g>
		<g>
			<path style="fill:#F7A594;" d="M699.535,1102.843c0,0,21.596,161.806,66.349,207.069
				c46.249,46.776,308.354,21.079,308.354,21.079l-9.024-63.301l-197.728-53.117l2.129-129.852L699.535,1102.843z"/>
			<path style="fill:#13305C;" d="M705.198,884.125c0,0-46.836,117.609-7.462,252.265c122.773,41.015,171.825-32.211,171.825-32.211
				s8.112-149.662-23.745-211.112C813.959,831.617,720.335,853.336,705.198,884.125z"/>
			<path style="fill:#1D498C;" d="M688.413,1095.259c18.715,12.142,183.825-5.019,181.3-24.073
				c9.789,15.864,14.199,32.95,5.288,53.051c4.014,26.304-172.332,53.28-176.346,26.976
				C683.968,1138.81,680.556,1120.155,688.413,1095.259z"/>
			<path style="fill:#231F20;" d="M869.714,1072.695c-0.112,0-0.226-0.013-0.339-0.039c-0.812-0.187-1.319-0.996-1.133-1.809
				c5.166-22.491,6.415-51.063,3.429-78.39c-0.09-0.829,0.508-1.574,1.336-1.664c0.833-0.096,1.574,0.508,1.664,1.336
				c3.022,27.649,1.75,56.587-3.488,79.394C871.023,1072.222,870.402,1072.695,869.714,1072.695z"/>
			<path style="fill:#F7A594;" d="M1037.464,1263.219c0,0,20.005-38.721,29.035-38.476c9.029,0.245,13.619,4.468,13.619,4.468
				s17.757-15.913,32.984-2.041c15.227,13.873,36.003,39.54,25.233,67.427c-10.769,27.886-61.746,44.204-81.826,34.111
				C1056.508,1328.708,1015.756,1309.766,1037.464,1263.219z"/>
		</g>
		<path style="fill:#F7A594;" d="M1514.322,826.437c-12.04-23.065-40.474-60.005-51.745-59.83
			c-11.271,0.175-40.054,52.461-39.179,68.379c0.721,13.115,7.716,41.712,13.383,52.252c7.113,13.227,38.766,25.734,55.724,3.811
			C1509.464,869.125,1522.867,842.807,1514.322,826.437z"/>
		<path style="fill:#BF5847;" d="M1468.693,849.381c-0.536,0-1.036-0.338-1.217-0.875c-9.311-27.643-25.134-42.834-25.292-42.984
			l-0.756-0.715l0.543-0.888c0.056-0.091,5.645-9.317,10.596-25.336c1.272-4.116,1.016-7.748-0.762-10.797
			c-3.595-6.167-12.205-8.113-12.292-8.131c-0.693-0.152-1.131-0.836-0.98-1.529c0.151-0.693,0.843-1.128,1.529-0.98
			c0.398,0.087,9.804,2.216,13.961,9.347c2.154,3.695,2.49,8.018,0.997,12.848c-4.23,13.686-8.82,22.349-10.344,25.036
			c3.302,3.36,16.744,18.106,25.234,43.31c0.226,0.672-0.135,1.4-0.807,1.627C1468.967,849.36,1468.829,849.381,1468.693,849.381z"
			/>
		<g>
			<g>
				<g>
					<path d="M1530.266,1072.594c-23.494-1.189-42.145-19.207-42.145-41.271c0-22.059,18.651-40.081,42.145-41.271v-9.316
						c-29.043,1.199-52.187,23.388-52.187,50.586c0,27.198,23.144,49.388,52.187,50.586
						C1539.087,1081.91,1539.087,1072.594,1530.266,1072.594z"/>
					<path d="M1590.723,1011.788c-7.561-19.375-26.665-31.101-47.53-31.325v9.427c16.788,0.407,32.079,9.927,38.175,25.549
						c8.021,20.554-2.804,44.119-24.258,53.768c-8.217,3.207-4.83,11.885,3.387,8.678
						C1587.117,1066.21,1600.61,1037.125,1590.723,1011.788z"/>
				</g>
				<polygon points="1559.93,990.26 1512.319,990.26 1518.859,967.889 1553.39,967.889 				"/>
			</g>
			<g>
				<polygon points="1494.993,857.387 1538.374,837.769 1541.633,860.847 1510.17,875.075 				"/>
				<path d="M1477.338,763.319c-25.244,11.416-36.455,41.137-25.039,66.381c11.416,25.244,41.137,36.455,66.381,25.039
					c25.244-11.416,36.455-41.137,25.039-66.381C1532.303,763.113,1502.582,751.903,1477.338,763.319z M1514.922,846.426
					c-20.653,9.34-44.97,0.168-54.31-20.485c-9.34-20.653-0.168-44.97,20.485-54.31c20.658-9.342,44.975-0.17,54.315,20.483
					C1544.752,812.768,1535.58,837.084,1514.922,846.426z"/>
				<g>
					<path style="fill:#FFFFFF;" d="M1521.729,857.846L1521.729,857.846c-1.103,0.437-2.363-0.109-2.8-1.212l0,0
						c-0.437-1.103,0.109-2.363,1.212-2.8l0,0c1.103-0.437,2.363,0.109,2.8,1.212l0,0
						C1523.378,856.149,1522.832,857.409,1521.729,857.846z"/>
					<path style="fill:#FFFFFF;" d="M1523.315,861.851L1523.315,861.851c-0.419,0.166-0.898-0.041-1.065-0.461l-1.472-3.718
						c-0.166-0.419,0.041-0.899,0.461-1.065l0,0c0.419-0.166,0.899,0.041,1.065,0.461l1.472,3.718
						C1523.942,861.206,1523.734,861.685,1523.315,861.851z"/>
				</g>
			</g>
			<path d="M1532.623,901.178c-3.247,0-6.235-2.147-7.154-5.422l-4.06-14.49c-0.534-1.905-0.292-3.908,0.682-5.64
				c0.974-1.732,2.56-2.98,4.465-3.514l2.05-0.574c1.905-0.535,3.907-0.292,5.639,0.682c1.732,0.974,2.98,2.56,3.514,4.464
				l4.06,14.489c0.534,1.905,0.292,3.908-0.682,5.64c-0.974,1.732-2.56,2.98-4.465,3.514l-2.049,0.575
				C1533.957,901.089,1533.284,901.178,1532.623,901.178z M1530.604,876.735c-0.174,0-0.349,0.023-0.52,0.072l-2.051,0.574
				c-0.498,0.14-0.914,0.469-1.171,0.927c-0.258,0.458-0.323,0.984-0.183,1.482l4.06,14.489c0.291,1.038,1.375,1.646,2.41,1.354
				l2.05-0.575c0.498-0.14,0.914-0.469,1.171-0.927c0.258-0.458,0.323-0.984,0.183-1.482l-4.06-14.489
				c-0.14-0.497-0.469-0.913-0.927-1.171C1531.265,876.821,1530.935,876.735,1530.604,876.735z"/>
			<path d="M1537.206,932.951c-3.741,0-6.967-2.828-7.377-6.63l-1.612-14.96c-0.438-4.071,2.517-7.74,6.588-8.179l2.117-0.228
				c1.967-0.212,3.902,0.357,5.45,1.604c1.548,1.247,2.517,3.016,2.729,4.983l1.612,14.961c0.438,4.071-2.517,7.739-6.587,8.178
				l-2.117,0.228C1537.738,932.937,1537.471,932.951,1537.206,932.951z M1537.715,908.383c-0.069,0-0.138,0.003-0.208,0.011
				l-2.117,0.228c-1.071,0.115-1.849,1.081-1.733,2.152l1.612,14.961c0.115,1.071,1.078,1.852,2.152,1.733l2.117-0.228
				c1.071-0.115,1.849-1.081,1.733-2.152l-1.612-14.961c-0.055-0.514-0.311-0.978-0.721-1.308
				C1538.585,908.534,1538.157,908.383,1537.715,908.383z"/>
			<path d="M1539.145,966.439h-2.129c-4.095,0-7.426-3.331-7.426-7.426v-15.047c0-4.095,3.331-7.426,7.426-7.426h2.129
				c4.095,0,7.426,3.331,7.426,7.426v15.047C1546.57,963.108,1543.239,966.439,1539.145,966.439z M1537.016,942.012
				c-1.078,0-1.954,0.876-1.954,1.954v15.047c0,1.078,0.876,1.954,1.954,1.954h2.129c1.078,0,1.954-0.876,1.954-1.954v-15.047
				c0-1.078-0.876-1.954-1.954-1.954H1537.016z"/>
			<path d="M1536.707,913.492c-1.305,0-2.461-0.938-2.692-2.268l-3.185-18.334c-0.259-1.489,0.738-2.905,2.227-3.164
				c1.484-0.257,2.905,0.738,3.164,2.227l3.185,18.335c0.259,1.489-0.738,2.905-2.227,3.164
				C1537.021,913.479,1536.863,913.492,1536.707,913.492z"/>
			<path d="M1538.362,947.083c-1.497,0-2.718-1.205-2.735-2.705l-0.209-18.607c-0.017-1.511,1.194-2.75,2.705-2.766
				c1.507-0.052,2.75,1.194,2.766,2.705l0.209,18.607c0.017,1.511-1.194,2.75-2.705,2.766
				C1538.383,947.083,1538.373,947.083,1538.362,947.083z"/>
			<path d="M1538.343,980.206c-0.008,0-0.017,0-0.025,0c-1.511-0.014-2.725-1.25-2.711-2.76l0.167-18.608
				c0.014-1.51,1.29-2.694,2.76-2.711c1.511,0.014,2.725,1.25,2.711,2.76l-0.167,18.608
				C1541.064,978.998,1539.842,980.206,1538.343,980.206z"/>
			<path d="M1529.625,880.873c-1.13,0-2.188-0.706-2.583-1.833l-4.615-13.203c-0.499-1.426,0.253-2.987,1.68-3.485
				c1.428-0.5,2.987,0.254,3.485,1.68l4.615,13.203c0.499,1.426-0.253,2.987-1.68,3.485
				C1530.229,880.823,1529.924,880.873,1529.625,880.873z"/>
			<g>
				<path style="fill:#FFFFFF;" d="M1537.617,977.404L1537.617,977.404c-1.187,0.004-2.161-0.963-2.165-2.149l0,0
					c-0.004-1.186,0.963-2.161,2.149-2.165l0,0c1.187-0.004,2.161,0.963,2.165,2.149l0,0
					C1539.771,976.426,1538.803,977.4,1537.617,977.404z"/>
				<path style="fill:#FFFFFF;" d="M1537.633,981.712L1537.633,981.712c-0.451,0.002-0.822-0.366-0.823-0.817l-0.015-3.999
					c-0.002-0.451,0.366-0.822,0.817-0.823l0,0c0.451-0.002,0.822,0.366,0.823,0.817l0.015,3.999
					C1538.452,981.34,1538.084,981.71,1537.633,981.712z"/>
			</g>
		</g>
		<path style="fill:#F7A594;" d="M1464.077,786.751c-0.8,0-10.206,11.353-14.056,25.885c-4.059-5.305-6.956-8.047-6.956-8.047
			s5.662-9.238,10.728-25.628s-14.006-20.561-14.006-20.561s-18.178,24.138-19.966,47.083s13.41,69.731,13.41,69.731l28.792-22.018
			c14.541,12.926,34.781,13.486,39.87,5.343c6.41-10.256,8.653-22.434,8.653-22.434L1464.077,786.751z"/>
		<path style="fill:#BF5847;" d="M1487.397,864.687c-9.311,0-19.852-5.041-29.971-14.539c-21.028-19.737-0.67-56.739,0.207-58.304
			c0.346-0.619,1.128-0.84,1.747-0.493c0.619,0.346,0.839,1.128,0.493,1.747c-0.205,0.366-20.253,36.816-0.689,55.178
			c12.292,11.537,25.053,16.178,35.017,12.735c8.247-2.851,13.992-11.146,15.763-22.758c0.106-0.702,0.763-1.182,1.462-1.076
			c0.701,0.107,1.183,0.762,1.076,1.462c-1.919,12.586-8.285,21.625-17.462,24.798
			C1492.618,864.275,1490.058,864.687,1487.397,864.687z"/>
		<path style="fill:#BF5847;" d="M1457.447,848.443c-0.293,0-0.588-0.1-0.83-0.304c-0.541-0.458-0.608-1.268-0.149-1.81
			c14.109-16.657,15.451-39.434,15.463-39.662c0.037-0.709,0.637-1.247,1.349-1.215c0.708,0.037,1.252,0.641,1.215,1.349
			c-0.05,0.967-1.404,23.876-16.068,41.188C1458.173,848.289,1457.811,848.443,1457.447,848.443z"/>
		<path style="fill:#BF5847;" d="M1475.436,860.975c-0.293,0-0.588-0.1-0.83-0.304c-0.541-0.458-0.608-1.268-0.149-1.81
			c14.109-16.657,15.451-39.434,15.463-39.662c0.037-0.708,0.634-1.25,1.349-1.215c0.708,0.037,1.252,0.641,1.215,1.349
			c-0.05,0.967-1.404,23.876-16.068,41.188C1476.162,860.821,1475.8,860.975,1475.436,860.975z"/>
		<g>
			<g>
				<g>
					<g>
						<path style="fill:#D9FFFF;" d="M998.67,1055.169L998.67,1055.169c0.123-0.646,0.177-0.931,0.189-0.997
							C998.836,1054.292,998.67,1055.169,998.67,1055.169z"/>
						<path style="fill:#D9FFFF;" d="M998.67,1055.169L998.67,1055.169c0.123-0.646,0.177-0.931,0.189-0.997
							C998.836,1054.292,998.67,1055.169,998.67,1055.169z"/>
						<path style="fill:#D9FFFF;" d="M1386.309,1128.72c0,0,0.167-0.877,0.189-0.997
							C1386.486,1127.789,1386.432,1128.074,1386.309,1128.72L1386.309,1128.72z"/>
						<path style="fill:#D9FFFF;" d="M1386.309,1128.72c0,0,0.167-0.877,0.189-0.997
							C1386.486,1127.789,1386.432,1128.074,1386.309,1128.72L1386.309,1128.72z"/>
						<path style="fill:#FFFFFF;" d="M1212.766,986.898c-54.137,39.835-133.594,65.986-213.907,68.526
							c-0.974,5.128-6.367,33.537-31.227,164.481c-33.162,174.678,118.165,291.055,141.686,308.97
							c27.277-6.865,212.332-60.827,245.494-235.505c24.859-130.944,30.253-159.354,31.226-164.481
							C1312.242,1097.107,1248.54,1043.793,1212.766,986.898z"/>
					</g>
				</g>
				<g>
					<path style="fill:#007880;" d="M1206.452,1018.409c-51.759,32.23-118.978,52.648-189.63,57.48l-28.098,148
						c-12.857,67.72,2.838,134.041,46.65,197.13c28.786,41.452,61.842,69.976,78.847,83.198c0.884-0.259,1.857-0.556,2.815-0.847
						l89.737-484.545C1206.667,1018.686,1206.555,1018.549,1206.452,1018.409z"/>
					<path style="fill:#008F99;" d="M1206.774,1018.825l-89.737,484.545c21.434-6.507,60.861-20.861,101.041-47.685
						c63.884-42.654,102.795-98.615,115.651-166.335l28.098-148.002C1298.039,1111.063,1243.12,1067.602,1206.774,1018.825z"/>
				</g>
			</g>
			<g>
				<path style="fill:#FFFFFF;" d="M1088.867,1217.813l-21.252,114.751c-2.366,12.775,154.368,41.792,156.734,29.017l21.252-114.751
					L1088.867,1217.813z M1163.877,1294.726l-6.023,32.523c-0.802,4.332-5.009,7.274-9.361,6.469
					c-4.424-0.819-7.298-5.072-6.496-9.404l6.037-32.597c-6.156-4.253-9.624-11.882-8.183-19.663
					c1.972-10.646,12.265-17.624,22.96-15.644c10.694,1.98,17.734,12.167,15.763,22.813
					C1177.118,1287.078,1171.22,1292.972,1163.877,1294.726z"/>
				<path style="fill:#FFFFFF;" d="M1233.397,1236.112l-15.866-2.937l1.431-7.727c4.958-26.773-12.89-52.606-39.782-57.585
					c-26.897-4.98-52.813,12.751-57.772,39.524l-1.431,7.727l-15.866-2.937l1.431-7.727c6.571-35.482,40.916-58.979,76.562-52.379
					c35.641,6.598,59.294,40.833,52.723,76.315L1233.397,1236.112z"/>
			</g>
		</g>
	</g>
</g>
</svg>
